<svg id="Layer_1" height="512" viewBox="0 0 512 512" width="512" xmlns="http://www.w3.org/2000/svg" data-name="Layer 1"><path d="m138.99 388.628c4.042-7.287 6.353-15.662 6.353-24.569 0-28.023-22.799-50.822-50.821-50.822s-50.822 22.798-50.822 50.822c0 8.907 2.311 17.282 6.353 24.569-22.7 7.187-39.014 28.452-39.014 53.261v61.111c0 4.418 3.582 8 8 8h150.966c4.418 0 8-3.582 8-8v-61.111c0-24.809-16.314-46.073-39.014-53.261zm23.014 106.372h-134.966v-53.111c0-19.954 14.79-36.689 34.222-39.453 8.922 7.742 20.549 12.445 33.261 12.445s24.339-4.702 33.26-12.444c19.434 2.765 34.223 19.499 34.223 39.453v53.111zm165.016-146.908h-38.864c-6.651 0-12.063 5.57-12.063 12.416v136.281c0 6.846 5.412 12.416 12.063 12.416h38.864c6.652 0 12.064-5.57 12.064-12.416v-136.281c0-6.846-5.412-12.416-12.064-12.416zm-3.936 145.112h-30.992v-129.112h30.992zm19.161-363.311c7.101 7.1 8.001 18.172 2.14 26.327s-51.235 71.273-51.235 71.273c-.253.351-.533.682-.839.987-6.498 6.498-15.138 10.077-24.327 10.077s-17.828-3.579-24.326-10.077c-13.414-13.414-13.414-35.24 0-48.653.307-.306.637-.586.987-.839l71.273-51.235c8.154-5.863 19.227-4.962 26.328 2.139zm-15.571-27.397c36.177 20.886 58.675 59.843 58.714 101.666.005 4.691 3.809 8.492 8.5 8.492h69.247c2.256 0 4.419-.896 6.013-2.493 1.595-1.596 2.489-3.759 2.487-6.015-.032-35.109-9.186-69.823-26.468-100.389-17.809-31.496-43.873-57.756-75.375-75.944-97.235-56.138-222.013-22.703-278.152 74.53-17.897 31.001-27.34 66.208-27.307 101.816.005 4.691 3.809 8.492 8.5 8.492h69.245c2.256 0 4.419-.896 6.013-2.492 1.595-1.596 2.489-3.76 2.487-6.016-.019-20.518 5.426-40.81 15.745-58.683 15.677-27.154 40.99-46.578 71.276-54.693 30.284-8.114 61.918-3.95 89.074 11.728zm98.416 1.136-45.269 26.136c-9.765-14.699-22.422-27.52-37.423-37.508l26.146-45.285c22.996 14.726 42.174 34.174 56.546 56.657zm-291.246 92.02h-52.322c1.215-26.893 8.33-53.323 20.776-77.34l45.293 26.15c-7.938 16.004-12.624 33.432-13.747 51.191zm74.42-111.931-26.109-45.223c23.963-12.367 50.39-19.448 77.327-20.719v52.219c-8.788.575-17.583 2.02-26.282 4.35-8.698 2.331-17.038 5.477-24.935 9.373zm46.512 307.414v109.167c0 5.999-5.299 10.698-12.063 10.698h-38.864c-6.765 0-12.064-4.699-12.064-10.698v-109.167c0-5.999 5.3-10.698 12.064-10.698h38.864c6.765 0 12.063 4.699 12.063 10.698zm164.124-60.129v168.507c0 6.334-5.412 11.487-12.064 11.487h-38.864c-6.651 0-12.063-5.153-12.063-11.487v-168.507c0-6.334 5.412-11.487 12.063-11.487h38.864c6.652 0 12.064 5.153 12.064 11.487zm11.309-43.44c-4.163-1.481-6.337-6.056-4.855-10.219l5.56-15.626-211.925 101.184c-1.112.531-2.286.783-3.441.783-2.987 0-5.853-1.68-7.226-4.555-1.903-3.987-.214-8.762 3.772-10.666l212.018-101.228-15.722-5.593c-4.162-1.481-6.337-6.056-4.855-10.219 1.479-4.163 6.056-6.336 10.219-4.855l33.849 12.042c1.858.655 3.475 1.992 4.444 3.866.041.081.082.163.121.245.033.069.065.139.096.209.855 1.938.878 4.046.215 5.908l-12.05 33.869c-1.482 4.164-6.058 6.335-10.219 4.855zm58.689 1.898h-38.865c-6.651 0-12.063 4.958-12.063 11.051v199.433c0 6.094 5.412 11.051 12.063 11.051h38.865c6.651 0 12.063-4.958 12.063-11.051v-199.433c0-6.094-5.412-11.051-12.063-11.051zm-3.936 205.536h-30.992v-189.536h30.992z"/></svg>